# xmcd
#
# Track frame offsets:
#	150
#	24825
#	38270
#	59877
#	85445
#	113603
#	132191
#	146603
#
# Disc length: 2331 seconds
#
# Revision: 1
# Processed by: cddbd v1.5.2PL0 Copyright (c) Steve Scherf et al.
# Submitted via: audiograbber 1.83.01
#
DISCID=63091908
DTITLE=Bintangs - Mona Lisa
DYEAR=1900
DGENRE=Pop
TTITLE0=Bintangs - Waterfall
TTITLE1=Bintangs - Mona Lisa
TTITLE2=Bintangs - Bye bye Johnny
TTITLE3=Bintangs - You cant love 'm all
TTITLE4=Bintangs - Shut your face
TTITLE5=Bintangs - I'm a rocker
TTITLE6=Bintangs - Exciting
TTITLE7=Bintangs - I'm a man
EXTD=
EXTT0=
EXTT1=
EXTT2=
EXTT3=
EXTT4=
EXTT5=
EXTT6=
EXTT7=
PLAYORDER=
